<svg viewBox="0 0 22 18" fill="#FFFFFF" xmlns="http://www.w3.org/2000/svg" width="27" height="22"><path d="M9.75 9a.75.75 0 0 0-1.5 0v4a.75.75 0 0 0 1.5 0V9ZM13.75 9a.75.75 0 0 0-1.5 0v4a.75.75 0 0 0 1.5 0V9Z" fill="current"></path><path fill-rule="evenodd" clip-rule="evenodd" d="M14.53.47a.75.75 0 0 0-1.06 1.06l2.72 2.72H6.052l2.72-2.72A.75.75 0 0 0 7.713.47L3.931 4.25H1a.75.75 0 0 0 0 1.5h.544c.227.856.52 1.843.86 2.992l1.025 3.455c.407 1.373.657 2.215 1.094 2.9a5.75 5.75 0 0 0 3.255 2.429c.78.224 1.658.224 3.09.224h.263c1.432 0 2.31 0 3.091-.224a5.75 5.75 0 0 0 3.255-2.43c.437-.684.687-1.526 1.094-2.9l1.025-3.454c.34-1.148.633-2.136.86-2.992H21a.75.75 0 0 0 0-1.5h-2.69L14.53.47ZM3.847 8.332c-.294-.992-.546-1.841-.75-2.582h15.805c-.203.741-.455 1.59-.75 2.582l-.982 3.313c-.457 1.539-.648 2.16-.957 2.644a4.25 4.25 0 0 1-2.406 1.795c-.551.159-1.202.166-2.807.166s-2.256-.007-2.807-.166a4.25 4.25 0 0 1-2.406-1.795c-.309-.484-.5-1.105-.957-2.644l-.983-3.313Z" fill="current"></path></svg>