<svg viewBox="0 0 22 15" fill="#2A4560" xmlns="http://www.w3.org/2000/svg" height="15" width="21"><path d="M15.756.282a.625.625 0 1 0-.884.884l2.267 2.267H8.691l2.267-2.267a.625.625 0 0 0-.884-.884L6.923 3.433H4.479a.625.625 0 1 0 0 1.25H19.4c-.17.618-.38 1.325-.625 2.153l-.819 2.76c-.38 1.283-.54 1.8-.797 2.204a3.543 3.543 0 0 1-2.005 1.496c-.434.125-.94.137-2.117.138a.539.539 0 0 0-.38.158.61.61 0 0 0 .036.896l.061.053a.602.602 0 0 0 .391.144c1.065 0 1.745-.012 2.355-.187a4.793 4.793 0 0 0 2.712-2.025c.364-.57.573-1.272.912-2.417l.854-2.879c.284-.958.528-1.78.717-2.494h.454a.625.625 0 0 0 0-1.25h-2.242l-3.15-3.15Z" fill="current"></path><path stroke="#2A4560" stroke-width="1.042" stroke-linecap="round" d="M1.041 7.079h7.293M3.542 9.58h5.626M6.042 12.08h4.793"></path></svg>