<svg viewBox="0 0 19 19" fill="#2A4560" xmlns="http://www.w3.org/2000/svg" height="17" width="15"><path d="M4.737 1.545A.625.625 0 0 0 3.956.57L1.872 2.236a.625.625 0 1 0 .781.976l2.084-1.667ZM15.572.57a.625.625 0 0 0-.781.975l2.084 1.667a.625.625 0 1 0 .78-.976L15.572.57ZM10.389 5.85a.625.625 0 0 0-1.25 0v4.167c0 .594.718.892 1.138.472l1.697-1.697a.625.625 0 0 0-.884-.884l-.701.701v-2.76Z" fill="current"></path><path fill-rule="evenodd" clip-rule="evenodd" d="M9.764 1.057a8.96 8.96 0 1 0 0 17.92 8.96 8.96 0 0 0 0-17.92Zm-7.71 8.96a7.71 7.71 0 1 1 15.42 0 7.71 7.71 0 0 1-15.42 0Z" fill="current"></path></svg>