<svg width="73" height="73" viewBox="0 0 73 73" fill="none" xmlns="http://www.w3.org/2000/svg"><g filter="url(#filter0_d_7_6101)"><circle cx="35.5" cy="34.5" r="33.5" fill="white"></circle></g><path d="M51.7384 35.8863C51.7384 34.5535 51.6281 33.5809 51.3892 32.5722H35.8588V38.588H44.9748C44.7911 40.0831 43.7986 42.3345 41.5931 43.8474L41.5621 44.0488L46.4726 47.7768L46.8128 47.8101C49.9372 44.9822 51.7384 40.8215 51.7384 35.8863Z" fill="#4285F4"></path><path d="M35.8577 51.7368C40.3238 51.7368 44.0731 50.2958 46.8117 47.8103L41.592 43.8475C40.1952 44.8022 38.3205 45.4686 35.8577 45.4686C31.4835 45.4686 27.7709 42.6408 26.4475 38.7323L26.2535 38.7484L21.1476 42.621L21.0808 42.8029C23.8009 48.0983 29.3882 51.7368 35.8577 51.7368Z" fill="#34A853"></path><path d="M26.4485 38.7324C26.0993 37.7237 25.8972 36.6429 25.8972 35.5263C25.8972 34.4095 26.0993 33.3288 26.4301 32.3202L26.4208 32.1054L21.2509 28.1706L21.0817 28.2495C19.9607 30.4469 19.3174 32.9146 19.3174 35.5263C19.3174 38.138 19.9607 40.6055 21.0817 42.8029L26.4485 38.7324Z" fill="#FBBC05"></path><path d="M35.8578 25.5838C38.9639 25.5838 41.0591 26.8987 42.2538 27.9975L46.9221 23.5305C44.055 20.9188 40.3239 19.3158 35.8578 19.3158C29.3882 19.3158 23.8009 22.9541 21.0808 28.2495L26.4292 32.3202C27.771 28.4117 31.4836 25.5838 35.8578 25.5838Z" fill="#EB4335"></path><defs><filter id="filter0_d_7_6101" x="0" y="0" width="73" height="73" filterUnits="userSpaceOnUse" color-interpolation-filters="sRGB"><feFlood flood-opacity="0" result="BackgroundImageFix"></feFlood><feColorMatrix in="SourceAlpha" type="matrix" values="0 0 0 0 0 0 0 0 0 0 0 0 0 0 0 0 0 0 127 0" result="hardAlpha"></feColorMatrix><feOffset dx="1" dy="2"></feOffset><feGaussianBlur stdDeviation="1.5"></feGaussianBlur><feComposite in2="hardAlpha" operator="out"></feComposite><feColorMatrix type="matrix" values="0 0 0 0 0 0 0 0 0 0 0 0 0 0 0 0 0 0 0.1 0"></feColorMatrix><feBlend mode="normal" in2="BackgroundImageFix" result="effect1_dropShadow_7_6101"></feBlend><feBlend mode="normal" in="SourceGraphic" in2="effect1_dropShadow_7_6101" result="shape"></feBlend></filter></defs></svg>