<svg viewBox="0 0 18 18" fill="#2A4560" xmlns="http://www.w3.org/2000/svg" height="17" width="15"><path fill-rule="evenodd" clip-rule="evenodd" d="M4.895.275c-.304-.02-.675-.02-1.12-.02h-.05c-.445 0-.816 0-1.12.02a2.823 2.823 0 0 0-.907.188A2.75 2.75 0 0 0 .209 1.952c-.12.29-.167.59-.188.907C0 3.163 0 3.534 0 3.979v.05c0 .445 0 .816.02 1.12.022.318.069.617.19.907a2.75 2.75 0 0 0 1.488 1.489c.29.12.59.167.907.188.304.021.675.021 1.12.021h.05c.445 0 .816 0 1.12-.02.317-.022.617-.069.907-.19a2.75 2.75 0 0 0 1.489-1.488c.12-.29.167-.59.188-.907.021-.304.021-.675.021-1.12v-.05c0-.445 0-.816-.02-1.12a2.823 2.823 0 0 0-.19-.907A2.75 2.75 0 0 0 5.803.463c-.29-.12-.59-.167-.907-.188ZM2.272 1.849c.077-.032.194-.061.435-.078a17.09 17.09 0 0 1 1.043-.017c.476 0 .796 0 1.043.017.241.017.358.046.435.078.307.127.55.37.677.677.032.077.061.194.078.435C6 3.208 6 3.528 6 4.004s0 .796-.017 1.043c-.017.241-.046.358-.078.435a1.25 1.25 0 0 1-.677.677c-.077.032-.194.061-.435.078-.247.017-.567.017-1.043.017s-.796 0-1.043-.017c-.241-.017-.358-.046-.435-.078a1.25 1.25 0 0 1-.677-.677c-.032-.077-.061-.194-.078-.435A17.09 17.09 0 0 1 1.5 4.004c0-.476 0-.796.017-1.043.017-.24.046-.358.078-.435.127-.307.37-.55.677-.677ZM14.895.275c-.304-.02-.675-.02-1.12-.02h-.05c-.445 0-.816 0-1.12.02a2.823 2.823 0 0 0-.907.188 2.75 2.75 0 0 0-1.489 1.489c-.12.29-.167.59-.188.907C10 3.163 10 3.534 10 3.979v.05c0 .445 0 .816.02 1.12.022.318.069.617.19.907a2.75 2.75 0 0 0 1.488 1.489c.29.12.59.167.907.188.304.021.675.021 1.12.021h.05c.445 0 .816 0 1.12-.02.318-.022.617-.069.907-.19a2.75 2.75 0 0 0 1.489-1.488c.12-.29.167-.59.188-.907.021-.304.021-.675.021-1.12v-.05c0-.445 0-.816-.02-1.12a2.822 2.822 0 0 0-.19-.907A2.75 2.75 0 0 0 15.803.463c-.29-.12-.59-.167-.907-.188Zm-2.623 1.574c.077-.032.194-.061.435-.078.247-.016.567-.017 1.043-.017s.796 0 1.043.017c.241.017.358.046.435.078.307.127.55.37.677.677.032.077.061.194.078.435.017.247.017.567.017 1.043s0 .796-.017 1.043c-.017.241-.046.358-.078.435a1.25 1.25 0 0 1-.677.677c-.077.032-.194.061-.435.078-.247.017-.567.017-1.043.017s-.796 0-1.043-.017c-.241-.017-.358-.046-.435-.078a1.25 1.25 0 0 1-.677-.677c-.032-.077-.061-.194-.078-.435a17.07 17.07 0 0 1-.017-1.043c0-.476 0-.796.017-1.043.017-.24.046-.358.078-.435.127-.307.37-.55.677-.677ZM4.895 10.275c-.304-.02-.675-.02-1.12-.02h-.05c-.445 0-.816 0-1.12.02a2.822 2.822 0 0 0-.907.188 2.75 2.75 0 0 0-1.489 1.489c-.12.29-.167.59-.188.907C0 13.163 0 13.534 0 13.979v.05c0 .445 0 .816.02 1.12.022.318.069.617.19.908a2.75 2.75 0 0 0 1.488 1.488c.29.12.59.167.907.188.304.021.675.021 1.12.021h.05c.445 0 .816 0 1.12-.02.317-.022.617-.069.907-.19a2.75 2.75 0 0 0 1.489-1.488c.12-.29.167-.59.188-.907.021-.304.021-.675.021-1.12v-.05c0-.445 0-.816-.02-1.12a2.823 2.823 0 0 0-.19-.907 2.75 2.75 0 0 0-1.488-1.489c-.29-.12-.59-.166-.907-.188Zm-2.623 1.574c.077-.032.194-.061.435-.078a17.07 17.07 0 0 1 1.043-.017c.476 0 .796 0 1.043.017.241.017.358.046.435.078.307.127.55.37.677.677.032.077.061.194.078.435.017.247.017.567.017 1.043s0 .796-.017 1.043c-.017.241-.046.358-.078.435a1.25 1.25 0 0 1-.677.677c-.077.032-.194.061-.435.078a17.07 17.07 0 0 1-1.043.017c-.476 0-.796 0-1.043-.017-.241-.017-.358-.046-.435-.078a1.25 1.25 0 0 1-.677-.677c-.032-.077-.061-.194-.078-.435a17.086 17.086 0 0 1-.017-1.043c0-.476 0-.796.017-1.043.017-.24.046-.358.078-.435.127-.306.37-.55.677-.677ZM14.895 10.275c-.304-.02-.675-.02-1.12-.02h-.05c-.445 0-.816 0-1.12.02a2.822 2.822 0 0 0-.907.188 2.75 2.75 0 0 0-1.489 1.489c-.12.29-.167.59-.188.907-.021.304-.021.675-.021 1.12v.05c0 .445 0 .816.02 1.12.022.318.069.617.19.908a2.75 2.75 0 0 0 1.488 1.488c.29.12.59.167.907.188.304.021.675.021 1.12.021h.05c.445 0 .816 0 1.12-.02.318-.022.617-.069.907-.19a2.75 2.75 0 0 0 1.489-1.488c.12-.29.167-.59.188-.907.021-.304.021-.675.021-1.12v-.05c0-.445 0-.816-.02-1.12a2.822 2.822 0 0 0-.19-.907 2.75 2.75 0 0 0-1.488-1.489c-.29-.12-.59-.166-.907-.188Zm-2.623 1.574c.077-.032.194-.061.435-.078.247-.017.567-.017 1.043-.017s.796 0 1.043.017c.241.017.358.046.435.078.307.127.55.37.677.677.032.077.061.194.078.435.017.247.017.567.017 1.043s0 .796-.017 1.043c-.017.241-.046.358-.078.435a1.25 1.25 0 0 1-.677.677c-.077.032-.194.061-.435.078-.247.017-.567.017-1.043.017s-.796 0-1.043-.017c-.241-.017-.358-.046-.435-.078a1.25 1.25 0 0 1-.677-.677c-.032-.077-.061-.194-.078-.435a17.067 17.067 0 0 1-.017-1.043c0-.476 0-.796.017-1.043.017-.24.046-.358.078-.435.127-.306.37-.55.677-.677Z" fill="current"></path></svg>