<svg viewBox="0 0 22 22" fill="none" xmlns="http://www.w3.org/2000/svg" width="28" height="28"><path fill-rule="evenodd" clip-rule="evenodd" d="M6.757 0h8.108a6.757 6.757 0 0 1 6.757 6.757v8.108a6.757 6.757 0 0 1-6.757 6.757H6.757A6.757 6.757 0 0 1 0 14.865V6.757A6.757 6.757 0 0 1 6.757 0Zm8.108 19.595a4.735 4.735 0 0 0 4.73-4.73V6.759a4.735 4.735 0 0 0-4.73-4.73H6.757a4.735 4.735 0 0 0-4.73 4.73v8.108a4.735 4.735 0 0 0 4.73 4.73h8.108Zm-9.46-8.784a5.406 5.406 0 1 1 10.812 0 5.406 5.406 0 0 1-10.812 0Zm2.027 0a3.383 3.383 0 0 0 3.379 3.379 3.383 3.383 0 0 0 3.378-3.378 3.382 3.382 0 0 0-3.378-3.379 3.382 3.382 0 0 0-3.379 3.379Zm9.91-5.81a.72.72 0 1 1-1.44 0 .72.72 0 0 1 1.44 0Z" fill="#ABABC0"></path></svg>