<svg viewBox="0 0 143 205" fill="none" xmlns="http://www.w3.org/2000/svg" width="119" height="170"><path d="M140.128 100.286H2.886c-1.59 0-2.886 1.307-2.886 2.913v90.725c0 .725.253 1.393.662 1.919 4.013 5.131 10.236 8.443 17.22 8.443 6.463 0 12.264-2.829 16.291-7.32.859-.867 2.337-.867 3.196 0 4.013 4.491 9.828 7.32 16.291 7.32 6.463 0 12.236-2.829 16.249-7.32.859-.867 2.337-.867 3.196 0 4.013 4.491 9.828 7.32 16.291 7.32 6.463 0 12.236-2.829 16.249-7.32.859-.867 2.337-.867 3.196 0 4.013 4.491 9.814 7.32 16.277 7.32 6.984 0 13.207-3.298 17.22-8.443a3.126 3.126 0 0 0 .662-1.919v-90.725c0-1.606-1.281-2.913-2.872-2.913Zm-19.769 72.858a11.581 11.581 0 0 1-5.858 1.592 11.75 11.75 0 0 1-10.194-5.927l-4.717-8.287a3.355 3.355 0 0 0-2.914-1.691c-.564 0-1.14.142-1.662.455a3.458 3.458 0 0 0-1.239 1.236l-4.717 8.287a11.72 11.72 0 0 1-10.194 5.927c-2 0-4.013-.512-5.871-1.592-5.618-3.269-7.548-10.532-4.295-16.203l10.603-18.634c.028-.057.056-.114.098-.157l.042-.071a3.408 3.408 0 0 1 2.887-1.606c1.887 0 3.407 1.549 3.407 3.44 0 .54-.126 1.052-.352 1.521-.014.028-.028.042-.042.071l-.014.014c-.028.043-.042.085-.07.114l-10.631 18.733v.014c-1.366 2.374-.55 5.43 1.802 6.794.76.441 1.591.668 2.45.668 1.76 0 3.394-.952 4.28-2.487l4.717-8.272a10.143 10.143 0 0 1 3.732-3.767 10.154 10.154 0 0 1 5.083-1.379 10.16 10.16 0 0 1 8.814 5.131v.015l4.703 8.286a4.94 4.94 0 0 0 4.28 2.488c.873 0 1.69-.228 2.45-.669 2.366-1.378 3.168-4.42 1.803-6.794 0 0 0-.014-.015-.014l-15.826-27.858c-2.126-3.71-6.054-6.012-10.278-6.012H28.513c-2.718 0-4.928 2.231-4.928 4.974 0 2.743 2.21 4.975 4.928 4.975l5.576-.014c5.618 0 10.18 4.605 10.18 10.262 0 .099 0 .213-.014.313v15.833c0 2.744 2.21 4.975 4.928 4.975 2.717 0 4.928-2.231 4.928-4.975v-16.132c0-.142 0-.27.014-.398.197-5.33 4.463-9.637 9.743-9.836.127-.014.268-.014.395-.014h4.956c1.887 0 3.407 1.549 3.407 3.44 0 1.89-1.52 3.439-3.407 3.439h-4.956c-1.845 0-3.337 1.507-3.337 3.369v16.147c0 6.552-5.266 11.868-11.743 11.868-6.491 0-11.757-5.316-11.757-11.868v-16.147h.014c0-1.862-1.507-3.383-3.351-3.383l-5.576.014c-6.491 0-11.743-5.315-11.743-11.868 0-6.552 5.266-11.854 11.743-11.854H92.62c6.913 0 12.953 3.824 16.178 9.452l15.854 27.859c3.253 5.671 1.324 12.934-4.294 16.203Z" fill="#fff"></path><path fill="#fff" d="M0 0h143v117H0z"></path></svg>