<svg viewBox="0 0 77 94" fill="none" xmlns="http://www.w3.org/2000/svg" width="64" height="79"><path d="M75.453 38H1.554C.698 38 0 38.704 0 39.569V88.42c0 .39.136.75.356 1.033C2.517 92.217 5.868 94 9.63 94c3.48 0 6.604-1.523 8.772-3.942a1.232 1.232 0 0 1 1.72 0C22.284 92.477 25.415 94 28.895 94c3.48 0 6.589-1.523 8.75-3.942a1.232 1.232 0 0 1 1.72 0C41.525 92.477 44.656 94 48.136 94c3.48 0 6.589-1.523 8.75-3.942a1.232 1.232 0 0 1 1.72 0C60.768 92.477 63.892 94 67.372 94c3.76 0 7.112-1.776 9.273-4.546.22-.283.356-.643.356-1.033V39.569c0-.865-.69-1.569-1.547-1.569ZM64.81 77.231a6.235 6.235 0 0 1-3.154.858 6.327 6.327 0 0 1-5.49-3.192l-2.54-4.462a1.806 1.806 0 0 0-1.569-.91c-.303 0-.614.076-.895.244-.28.169-.515.398-.667.666l-2.54 4.462a6.31 6.31 0 0 1-5.489 3.192 6.261 6.261 0 0 1-3.161-.858c-3.025-1.76-4.064-5.67-2.313-8.724l5.71-10.034a.315.315 0 0 1 .052-.084l.023-.039c.326-.52.902-.864 1.554-.864 1.016 0 1.835.834 1.835 1.852 0 .29-.068.566-.19.819-.007.015-.015.023-.022.038l-.008.008c-.015.022-.023.045-.038.06l-5.724 10.088v.008a2.691 2.691 0 0 0 .97 3.658c.41.237.857.36 1.32.36a2.67 2.67 0 0 0 2.305-1.34l2.54-4.454a5.46 5.46 0 0 1 2.009-2.028 5.465 5.465 0 0 1 2.737-.743 5.47 5.47 0 0 1 4.746 2.763v.008l2.532 4.462a2.66 2.66 0 0 0 2.305 1.34c.47 0 .91-.123 1.32-.36a2.686 2.686 0 0 0 .97-3.659s0-.007-.008-.007l-8.522-15.001c-1.145-1.998-3.26-3.237-5.534-3.237h-34.52c-1.463 0-2.654 1.201-2.654 2.678 0 1.477 1.19 2.679 2.654 2.679l3.002-.008c3.026 0 5.482 2.48 5.482 5.526 0 .054 0 .115-.008.168v8.526c0 1.477 1.19 2.679 2.654 2.679 1.463 0 2.654-1.202 2.654-2.679v-8.686c0-.077 0-.146.007-.215.106-2.87 2.404-5.189 5.247-5.296.068-.007.144-.007.212-.007h2.669c1.016 0 1.834.834 1.834 1.852a1.845 1.845 0 0 1-1.834 1.852h-2.669c-.993 0-1.797.811-1.797 1.814v8.694c0 3.528-2.835 6.39-6.323 6.39-3.495 0-6.33-2.862-6.33-6.39v-8.694h.007a1.817 1.817 0 0 0-1.805-1.822l-3.002.008c-3.495 0-6.323-2.862-6.323-6.39 0-3.529 2.835-6.384 6.323-6.384h34.52c3.722 0 6.975 2.06 8.711 5.09l8.537 15c1.751 3.054.713 6.965-2.312 8.725Z" fill="#FFB923"></path><path fill="#FFB923" d="M0 0h77v41H0z"></path></svg>