<svg viewBox="0 0 19 22" fill="#2A4560" xmlns="http://www.w3.org/2000/svg" height="17" width="15"><path fill-rule="evenodd" clip-rule="evenodd" d="M12.281.505c-.944-.019-1.995.312-3.72.856l-.224.071c-.675.213-1.09.344-1.475.532a5.75 5.75 0 0 0-2.03 1.652c-.26.339-.473.719-.819 1.337L1.568 9.329C.79 10.722.314 11.572.132 12.408a5.75 5.75 0 0 0 1.42 5.154c.584.624 1.428 1.111 2.81 1.909l.262.15c1.382.799 2.225 1.286 3.058 1.48a5.75 5.75 0 0 0 5.173-1.347c.633-.576 1.132-1.413 1.949-2.783l2.567-4.306c.363-.608.586-.982.748-1.378a5.75 5.75 0 0 0 .416-2.584c-.03-.427-.124-.852-.277-1.543l-.051-.23c-.391-1.765-.63-2.84-1.118-3.65A5.75 5.75 0 0 0 12.282.505Zm-3.434 2.34c1.943-.613 2.739-.854 3.405-.84a4.25 4.25 0 0 1 3.553 2.051c.345.57.534 1.38.975 3.368.17.77.238 1.082.259 1.384a4.25 4.25 0 0 1-.308 1.91c-.115.28-.276.554-.68 1.232l-2.458 4.123c-.92 1.541-1.3 2.165-1.747 2.571a4.25 4.25 0 0 1-3.824.996c-.587-.137-1.225-.495-2.78-1.393-1.554-.897-2.183-1.27-2.595-1.71a4.25 4.25 0 0 1-1.05-3.81c.13-.589.479-1.231 1.354-2.798l2.342-4.19c.385-.69.541-.966.727-1.206a4.25 4.25 0 0 1 1.5-1.221c.272-.133.575-.23 1.327-.468Z" fill="current"></path><path fill-rule="evenodd" clip-rule="evenodd" d="M9.007 6.46a2.5 2.5 0 1 0 4.33 2.5 2.5 2.5 0 0 0-4.33-2.5Zm1.299.75a1 1 0 1 0 1.732 1 1 1 0 0 0-1.732-1Z" fill="current"></path></svg>