<svg viewBox="0 0 35 35" fill="none" xmlns="http://www.w3.org/2000/svg" width="27" height="27"><path fill-rule="evenodd" clip-rule="evenodd" d="m8.371 31.46.611.363a16.705 16.705 0 0 0 8.515 2.332h.007c9.221 0 16.726-7.505 16.73-16.73A16.63 16.63 0 0 0 29.34 5.59 16.616 16.616 0 0 0 17.51.683C8.282.683.777 8.187.773 17.412a16.69 16.69 0 0 0 2.558 8.903l.398.633-1.69 6.174 6.332-1.661Z" fill="#5ADD6F"></path><path fill-rule="evenodd" clip-rule="evenodd" d="M27.913 22.213c-.126-.21-.461-.336-.964-.588-.503-.251-2.976-1.468-3.437-1.636-.46-.168-.796-.251-1.132.252-.335.503-1.299 1.636-1.592 1.972-.294.336-.587.378-1.09.126-.503-.252-2.123-.783-4.044-2.496-1.495-1.334-2.505-2.981-2.798-3.485-.294-.503-.032-.775.22-1.026.226-.226.503-.588.755-.881.251-.294.335-.504.503-.84.167-.335.084-.629-.042-.88-.126-.252-1.132-2.728-1.551-3.735-.408-.98-.823-.848-1.132-.863a19.974 19.974 0 0 0-.964-.018c-.335 0-.88.126-1.34.63-.462.503-1.761 1.72-1.761 4.195 0 2.476 1.802 4.867 2.054 5.203.251.336 3.546 5.416 8.591 7.594 1.2.519 2.137.828 2.868 1.06 1.205.383 2.301.329 3.168.2.966-.145 2.975-1.217 3.394-2.392.42-1.175.42-2.182.294-2.392Z" fill="#2A4560"></path></svg>